<svg xmlns="http://www.w3.org/2000/svg" viewBox="0 0 64 64" role="img" aria-hidden="true">
  <rect x="4" y="4" width="56" height="56" rx="18" fill="#5865F2"/>
  <path d="M21 22.5c4.3-3.1 8.6-4.3 11-4.6l1.2 2.4c-3 .3-5.3 1-7.9 2.4 3.3-1.5 6.7-2.2 10.7-2.2 4 0 7.4.7 10.7 2.2-2.6-1.4-4.9-2.1-7.9-2.4l1.2-2.4c2.4.3 6.7 1.5 11 4.6 1.8 4 2.7 8 2.8 12.2-2.3 2.7-4.9 4.5-7.7 5.7l-1.9-3c1.7-.6 3.2-1.4 4.5-2.5-1.8 1.1-3.7 1.9-5.7 2.3-2 .5-4.1.7-6.2.7s-4.2-.2-6.2-.7c-2-.4-3.9-1.2-5.7-2.3 1.3 1.1 2.8 1.9 4.5 2.5l-1.9 3c-2.8-1.2-5.4-3-7.7-5.7.1-4.2 1-8.2 2.8-12.2Z" fill="#fff" opacity=".96"/>
  <circle cx="26.5" cy="31.5" r="3" fill="#5865F2"/>
  <circle cx="37.5" cy="31.5" r="3" fill="#5865F2"/>
  <path d="M25 38c2.1 1.6 4.5 2.4 7 2.4s4.9-.8 7-2.4" fill="none" stroke="#5865F2" stroke-width="2.8" stroke-linecap="round"/>
</svg>